<svg width="20" height="20" viewBox="0 0 20 20" fill="none" xmlns="http://www.w3.org/2000/svg">
<g clip-path="url(#clip0_232_173)">
<path d="M18.3332 9.23336V10C18.3321 11.797 17.7503 13.5456 16.6743 14.9849C15.5983 16.4242 14.0859 17.4771 12.3626 17.9866C10.6394 18.4961 8.79755 18.4349 7.1119 17.8122C5.42624 17.1894 3.98705 16.0384 3.00897 14.5309C2.03089 13.0234 1.56633 11.2401 1.68457 9.44696C1.80281 7.65383 2.49751 5.94697 3.66507 4.58092C4.83263 3.21488 6.41049 2.26285 8.16333 1.86682C9.91617 1.47079 11.7501 1.65198 13.3915 2.38336M18.3332 3.33336L9.99984 11.675L7.49984 9.17503" stroke="#78DB89" stroke-width="2" stroke-linecap="round" stroke-linejoin="round"/>
</g>
<defs>
<clipPath id="clip0_232_173">
<rect width="20" height="20" fill="white"/>
</clipPath>
</defs>
</svg>
